<svg width="512" height="512" viewBox="0 0 512 512" fill="none" xmlns="http://www.w3.org/2000/svg">
  <rect width="512" height="512" rx="120" fill="#F4EFE6"/>
  <rect x="76" y="84" width="360" height="344" rx="56" fill="#FFF9F0"/>
  <path d="M140 190C140 166.804 158.804 148 182 148H330C353.196 148 372 166.804 372 190V322C372 345.196 353.196 364 330 364H182C158.804 364 140 345.196 140 322V190Z" fill="#0A6C74" fill-opacity="0.08"/>
  <path d="M178 182H274" stroke="#745C00" stroke-width="28" stroke-linecap="round"/>
  <path d="M178 250H334" stroke="#745C00" stroke-width="28" stroke-linecap="round"/>
  <path d="M178 318H294" stroke="#745C00" stroke-width="28" stroke-linecap="round"/>
  <circle cx="344" cy="322" r="50" fill="#745C00"/>
  <path d="M316 322H372" stroke="#FFF9F0" stroke-width="18" stroke-linecap="round"/>
  <path d="M344 294V350" stroke="#FFF9F0" stroke-width="18" stroke-linecap="round"/>
  <path d="M118 132L394 132" stroke="#0A6C74" stroke-opacity="0.1" stroke-width="12" stroke-linecap="round"/>
</svg>
